# This file uses centimeters as units for non-parametric coordinates.

mtllib cuthead.mtl
v -0.011479 2.567191 3.974819
v 0.649171 2.727113 3.974819
v 0.011479 2.892792 3.974819
v -0.649171 2.732870 3.974819
v -0.011479 2.567191 -3.974819
v -0.011479 2.567191 -0.629231
v -0.195005 2.614873 -0.600164
v -0.370921 2.660578 -0.510530
v -0.485785 2.690421 -0.395666
v -0.485785 2.690421 -0.352943
v -0.485785 2.690421 -0.157841
v -0.485785 2.690421 0.000000
v -0.485785 2.690421 0.157841
v -0.485785 2.690421 0.352943
v -0.485785 2.690421 0.395666
v -0.370921 2.660578 0.510530
v -0.195005 2.614873 0.600164
v -0.011479 2.567191 0.629231
v -0.649171 2.732870 -3.974819
v 0.649171 2.727113 -3.974819
v 0.000000 2.569970 0.631050
v 0.195005 2.617174 0.600164
v 0.370921 2.659758 0.510530
v 0.497594 2.690421 0.383858
v 0.497594 2.690421 0.361523
v 0.497594 2.690421 0.161678
v 0.497594 2.690421 0.000000
v 0.497594 2.690421 -0.161678
v 0.497594 2.690421 -0.361523
v 0.497594 2.690421 -0.383858
v 0.370922 2.659758 -0.510530
v 0.195005 2.617174 -0.600164
v 0.000000 2.569970 -0.631050
v 0.011479 2.892792 -3.974819
v 0.600164 0.019150 -0.195005
v 0.510530 0.019150 -0.370922
v 0.510530 2.690421 -0.370922
v 0.600164 2.690421 -0.195005
v 0.631050 0.019150 0.000000
v 0.631050 2.690421 0.000000
v 0.000000 0.019150 0.000000
v 0.370922 0.019150 -0.510530
v 0.600164 0.019150 0.195005
v 0.600164 2.690421 0.195005
v 0.195005 0.019150 -0.600164
v 0.510530 0.019150 0.370921
v 0.510530 2.690421 0.370921
v 0.000000 0.019150 -0.631050
v 0.370921 0.019150 0.510530
v -0.195005 0.019150 -0.600164
v 0.195005 0.019150 0.600164
v -0.370921 0.019150 -0.510530
v 0.000000 0.019150 0.631050
v -0.510530 0.019150 -0.370921
v -0.510530 2.690421 -0.370921
v -0.195005 0.019150 0.600164
v -0.600164 0.019150 -0.195005
v -0.600164 2.690421 -0.195005
v -0.370921 0.019150 0.510530
v -0.631050 0.019150 0.000000
v -0.631050 2.690421 0.000000
v -0.510530 2.690421 0.370921
v -0.510530 0.019150 0.370921
v -0.600164 0.019150 0.195005
v -0.600164 2.690421 0.195005
vt 0.625000 0.000000
vt 0.625000 0.250000
vt 0.375000 0.000000
vt 0.375000 0.250000
vt 0.125000 0.000000
vt 0.230212 0.000000
vt 0.125000 0.250000
vt 0.231126 0.071949
vt 0.233945 0.140915
vt 0.269788 0.000000
vt 0.268874 0.071949
vt 0.266055 0.140915
vt 0.237557 0.185946
vt 0.238901 0.185946
vt 0.245036 0.185946
vt 0.250000 0.185946
vt 0.254964 0.185946
vt 0.261099 0.185946
vt 0.262443 0.185946
vt 0.375000 0.894788
vt 0.379344 0.894845
vt 0.375000 1.000000
vt 0.625000 1.000000
vt 0.453137 0.893874
vt 0.519706 0.891055
vt 0.375000 0.855212
vt 0.375000 0.750000
vt 0.379344 0.855155
vt 0.625000 0.750000
vt 0.453137 0.856126
vt 0.519706 0.858945
vt 0.567641 0.887072
vt 0.567641 0.886369
vt 0.567641 0.880084
vt 0.567641 0.875000
vt 0.567641 0.869916
vt 0.567641 0.863631
vt 0.567641 0.862928
vt 0.875000 0.000000
vt 0.875000 0.250000
vt 0.375000 0.500000
vt 0.625000 0.500000
vt 0.375000 0.312500
vt 0.387500 0.312500
vt 0.375000 0.688440
vt 0.387500 0.688440
vt 0.612500 0.312500
vt 0.625000 0.312500
vt 0.612500 0.688440
vt 0.625000 0.688440
vt 0.626409 0.064408
vt 0.648603 0.107966
vt 0.500000 0.150000
vt 0.388658 0.688440
vt 0.400000 0.312500
vt 0.400000 0.684124
vt 0.623206 0.882714
vt 0.648603 0.892034
vt 0.623206 0.933106
vt 0.626409 0.935591
vt 0.600000 0.312500
vt 0.600000 0.688440
vt 0.656250 0.156250
vt 0.623206 0.842428
vt 0.656250 0.843750
vt 0.591842 0.029841
vt 0.623206 0.938794
vt 0.412500 0.678132
vt 0.412500 0.312500
vt 0.587500 0.312500
vt 0.587500 0.688440
vt 0.648603 0.204534
vt 0.648603 0.795466
vt 0.623206 0.802650
vt 0.548284 0.007647
vt 0.425000 0.671488
vt 0.425000 0.312500
vt 0.586342 0.688440
vt 0.575000 0.312500
vt 0.575000 0.684124
vt 0.626409 0.248091
vt 0.626409 0.751908
vt 0.623206 0.754077
vt 0.500000 -0.000000
vt 0.437500 0.677808
vt 0.425736 0.671097
vt 0.437500 0.312500
vt 0.562500 0.312500
vt 0.562500 0.678132
vt 0.591841 0.282659
vt 0.623206 0.748705
vt 0.451716 0.007647
vt 0.450000 0.312500
vt 0.450000 0.684240
vt 0.550000 0.312500
vt 0.550000 0.671488
vt 0.548284 0.304853
vt 0.408159 0.029841
vt 0.462500 0.688440
vt 0.460284 0.688440
vt 0.462500 0.312500
vt 0.549264 0.671097
vt 0.537500 0.677808
vt 0.537500 0.312500
vt 0.500000 0.312500
vt 0.373591 0.064409
vt 0.475000 0.312500
vt 0.475000 0.688440
vt 0.379718 0.941718
vt 0.373591 0.935591
vt 0.379718 0.930837
vt 0.525000 0.684240
vt 0.525000 0.312500
vt 0.451716 0.304853
vt 0.351397 0.107966
vt 0.487500 0.312500
vt 0.487500 0.688440
vt 0.351397 0.892034
vt 0.379718 0.881641
vt 0.512500 0.688440
vt 0.512500 0.312500
vt 0.514715 0.688440
vt 0.408159 0.282659
vt 0.343750 0.156250
vt 0.500000 0.312500
vt 0.500000 0.688440
vt 0.343750 0.843750
vt 0.379718 0.842311
vt 0.379718 0.756057
vt 0.373591 0.751909
vt 0.379718 0.745782
vt 0.373591 0.248091
vt 0.351397 0.204534
vt 0.379718 0.803477
vt 0.351397 0.795466
vn 0.000000 0.000000 1.000000
vn 0.000000 0.000000 1.000000
vn 0.000000 0.000000 1.000000
vn 0.000000 0.000000 1.000000
vn 0.000000 0.000000 1.000000
vn 0.000000 0.000000 1.000000
vn -0.004780 -0.999989 0.000000
vn -0.234088 -0.972215 0.000000
vn -0.251462 -0.967867 0.000000
vn -0.234088 -0.972215 0.000000
vn -0.251462 -0.967867 0.000000
vn -0.251462 -0.967867 0.000000
vn -0.251462 -0.967867 0.000000
vn -0.251462 -0.967867 0.000000
vn -0.251462 -0.967867 0.000000
vn -0.004780 -0.999989 0.000000
vn -0.251462 -0.967867 0.000000
vn -0.234088 -0.972215 0.000000
vn -0.234088 -0.972215 0.000000
vn -0.251462 -0.967867 0.000000
vn -0.251462 -0.967867 0.000000
vn -0.251462 -0.967867 0.000000
vn -0.251462 -0.967867 0.000000
vn -0.251462 -0.967867 0.000000
vn -0.251462 -0.967867 0.000000
vn -0.251462 -0.967867 0.000000
vn -0.251462 -0.967867 0.000000
vn -0.251462 -0.967867 0.000000
vn -0.251462 -0.967867 0.000000
vn -0.251462 -0.967867 0.000000
vn -0.251462 -0.967867 0.000000
vn -0.251463 -0.967867 0.000000
vn -0.251462 -0.967867 0.000000
vn -0.251463 -0.967867 0.000000
vn -0.251463 -0.967867 0.000000
vn -0.251462 -0.967867 0.000000
vn -0.251463 -0.967867 0.000000
vn -0.251462 -0.967867 0.000000
vn -0.251462 -0.967867 0.000000
vn -0.251462 -0.967867 0.000000
vn -0.251459 -0.967868 0.000000
vn -0.251462 -0.967867 0.000000
vn -0.251459 -0.967868 0.000000
vn -0.251463 -0.967867 0.000000
vn -0.251462 -0.967867 0.000000
vn -0.251463 -0.967867 0.000000
vn -0.251463 -0.967867 0.000000
vn -0.251462 -0.967867 0.000000
vn -0.251463 -0.967867 0.000000
vn -0.251462 -0.967867 0.000000
vn -0.251462 -0.967867 0.000000
vn -0.234088 -0.972215 0.000000
vn 0.235271 -0.971930 0.000000
vn -0.004780 -0.999989 0.000000
vn -0.004780 -0.999989 0.000000
vn 0.235271 -0.971930 0.000000
vn 0.235272 -0.971930 0.000000
vn 0.235271 -0.971930 0.000000
vn 0.235271 -0.971930 0.000000
vn 0.235272 -0.971930 0.000000
vn 0.235271 -0.971930 0.000000
vn 0.235272 -0.971930 0.000000
vn 0.235272 -0.971930 0.000000
vn -0.234088 -0.972215 0.000000
vn -0.004780 -0.999989 0.000000
vn 0.235271 -0.971930 0.000000
vn -0.004780 -0.999989 0.000000
vn 0.235272 -0.971930 0.000000
vn 0.235271 -0.971930 0.000000
vn 0.235271 -0.971930 0.000000
vn 0.235272 -0.971930 0.000000
vn 0.235271 -0.971930 0.000000
vn 0.235271 -0.971930 0.000000
vn 0.235272 -0.971930 0.000000
vn 0.235272 -0.971930 0.000000
vn 0.235272 -0.971930 0.000000
vn 0.235272 -0.971930 0.000000
vn 0.235272 -0.971930 0.000000
vn 0.235272 -0.971930 0.000000
vn 0.235272 -0.971930 0.000000
vn 0.235272 -0.971930 0.000000
vn 0.235272 -0.971930 0.000000
vn 0.235277 -0.971928 0.000000
vn 0.235272 -0.971930 0.000000
vn 0.235277 -0.971928 0.000000
vn 0.235271 -0.971930 0.000000
vn 0.235272 -0.971930 0.000000
vn 0.235271 -0.971930 0.000000
vn 0.235270 -0.971930 0.000000
vn 0.235272 -0.971930 0.000000
vn 0.235270 -0.971930 0.000000
vn 0.235270 -0.971930 0.000000
vn 0.235272 -0.971930 0.000000
vn 0.235270 -0.971930 0.000000
vn 0.235271 -0.971930 0.000000
vn 0.235272 -0.971930 0.000000
vn 0.235271 -0.971930 0.000000
vn 0.235272 -0.971930 0.000000
vn 0.235272 -0.971930 0.000000
vn 0.235272 -0.971930 0.000000
vn 0.235272 -0.971930 0.000000
vn 0.235272 -0.971930 0.000000
vn 0.251462 0.967867 0.000000
vn 0.251462 0.967867 0.000000
vn 0.251462 0.967867 0.000000
vn 0.251462 0.967867 0.000000
vn 0.251462 0.967867 0.000000
vn 0.251462 0.967867 0.000000
vn -0.235272 0.971930 0.000000
vn -0.235272 0.971930 0.000000
vn -0.235272 0.971930 0.000000
vn -0.235272 0.971930 0.000000
vn -0.235272 0.971930 0.000000
vn -0.235272 0.971930 0.000000
vn 0.000000 0.000000 -1.000000
vn 0.000000 0.000000 -1.000000
vn 0.000000 0.000000 -1.000000
vn 0.000000 0.000000 -1.000000
vn 0.000000 0.000000 -1.000000
vn 0.000000 0.000000 -1.000000
vn 0.951057 0.000000 -0.309016
vn 0.809202 0.000000 -0.587531
vn 0.951057 0.000000 -0.309016
vn 0.951057 0.000000 -0.309016
vn 0.809202 0.000000 -0.587531
vn 0.878756 0.000000 -0.477272
vn 1.000000 0.000000 0.000001
vn 0.951057 0.000000 -0.309016
vn 1.000000 0.000000 0.000001
vn 1.000000 0.000000 0.000001
vn 0.951057 0.000000 -0.309016
vn 0.951057 0.000000 -0.309016
vn 0.000000 -1.000000 0.000000
vn 0.000000 -1.000000 0.000000
vn 0.000000 -1.000000 0.000000
vn 0.878756 0.000000 -0.477272
vn 0.809202 0.000000 -0.587531
vn 0.707107 0.000000 -0.707107
vn 0.809202 0.000000 -0.587531
vn 0.589233 0.000000 -0.807963
vn 0.707107 0.000000 -0.707107
vn 0.707107 0.000000 -0.707107
vn 0.589233 0.000000 -0.807963
vn 0.597370 0.000000 -0.801966
vn 0.000000 1.000000 0.000000
vn 0.000000 1.000000 0.000000
vn 0.000000 1.000000 0.000002
vn 0.000000 1.000000 0.000002
vn 0.000000 1.000000 0.000000
vn 0.000000 1.000000 0.000007
vn 0.951057 0.000000 0.309017
vn 1.000000 0.000000 0.000001
vn 0.951057 0.000000 0.309017
vn 0.951057 0.000000 0.309017
vn 1.000000 0.000000 0.000001
vn 1.000000 0.000000 0.000001
vn 0.000000 -1.000000 0.000000
vn 0.000000 -1.000000 0.000000
vn 0.000000 -1.000000 0.000000
vn 0.000000 1.000000 0.000000
vn 0.000000 1.000000 0.000000
vn 0.000000 1.000000 0.000000
vn 0.000000 1.000000 0.000000
vn 0.000000 1.000000 0.000000
vn 0.000000 1.000000 0.000000
vn 0.000000 -1.000000 0.000000
vn 0.000000 -1.000000 0.000000
vn 0.000000 -1.000000 0.000000
vn 0.000000 1.000000 0.000002
vn 0.000000 1.000000 0.000007
vn 0.000000 1.000000 0.000000
vn 0.597370 0.000000 -0.801966
vn 0.589233 0.000000 -0.807963
vn 0.331660 0.000000 -0.943399
vn 0.331660 0.000000 -0.943399
vn 0.589233 0.000000 -0.807963
vn 0.310329 0.000000 -0.950629
vn 0.809201 0.000000 0.587531
vn 0.951057 0.000000 0.309017
vn 0.878756 0.000000 0.477272
vn 0.878756 0.000000 0.477272
vn 0.951057 0.000000 0.309017
vn 0.951057 0.000000 0.309017
vn 0.000000 -1.000000 0.000000
vn 0.000000 -1.000000 0.000000
vn 0.000000 -1.000000 0.000000
vn 0.000000 1.000000 -0.000001
vn 0.000000 1.000000 0.000000
vn 0.000000 1.000000 -0.000001
vn 0.000000 1.000000 -0.000001
vn 0.000000 1.000000 0.000000
vn 0.000000 1.000000 0.000000
vn 0.000000 -1.000000 0.000000
vn 0.000000 -1.000000 0.000000
vn 0.000000 -1.000000 0.000000
vn 0.331660 0.000000 -0.943399
vn 0.310329 0.000000 -0.950629
vn 0.143869 0.000000 -0.989597
vn 0.143869 0.000000 -0.989597
vn 0.310329 0.000000 -0.950629
vn 0.000303 0.000000 -1.000000
vn 0.878756 0.000000 0.477272
vn 0.707107 0.000000 0.707107
vn 0.809201 0.000000 0.587531
vn 0.809201 0.000000 0.587531
vn 0.707107 0.000000 0.707107
vn 0.589233 0.000000 0.807963
vn 0.597370 0.000000 0.801966
vn 0.589233 0.000000 0.807963
vn 0.707107 0.000000 0.707107
vn 0.000000 -1.000000 0.000000
vn 0.000000 -1.000000 0.000000
vn 0.000000 -1.000000 0.000000
vn 0.000000 1.000000 -0.000002
vn 0.000000 1.000000 -0.000001
vn 0.000000 1.000000 -0.000001
vn 0.000000 1.000000 -0.000001
vn 0.000000 1.000000 -0.000001
vn 0.000000 1.000000 -0.000001
vn 0.000000 -1.000000 0.000000
vn 0.000000 -1.000000 0.000000
vn 0.000000 -1.000000 0.000000
vn -0.337644 0.000000 -0.941274
vn -0.156434 0.000000 -0.987688
vn -0.310557 0.000000 -0.950555
vn 0.143869 0.000000 -0.989597
vn 0.000303 0.000000 -1.000000
vn -0.156434 0.000000 -0.987688
vn 0.000303 0.000000 -1.000000
vn -0.310557 0.000000 -0.950555
vn -0.156434 0.000000 -0.987688
vn 0.310329 0.000000 0.950629
vn 0.589233 0.000000 0.807963
vn 0.331661 0.000000 0.943399
vn 0.331661 0.000000 0.943399
vn 0.589233 0.000000 0.807963
vn 0.597370 0.000000 0.801966
vn 0.000000 -1.000000 0.000000
vn 0.000000 -1.000000 0.000000
vn 0.000000 -1.000000 0.000000
vn 0.000000 1.000000 0.000000
vn 0.000000 1.000000 -0.000002
vn 0.000000 1.000000 -0.000001
vn 0.000000 -1.000000 0.000000
vn 0.000000 -1.000000 0.000000
vn 0.000000 -1.000000 0.000000
vn -0.310557 0.000000 -0.950555
vn -0.589105 0.000000 -0.808057
vn -0.337644 0.000000 -0.941274
vn -0.337644 0.000000 -0.941274
vn -0.589105 0.000000 -0.808057
vn -0.592310 0.000000 -0.805710
vn 0.000304 -0.000000 1.000000
vn 0.310329 0.000000 0.950629
vn 0.143869 0.000000 0.989597
vn 0.143869 0.000000 0.989597
vn 0.310329 0.000000 0.950629
vn 0.331661 0.000000 0.943399
vn 0.000000 -1.000000 0.000000
vn 0.000000 -1.000000 0.000000
vn 0.000000 -1.000000 0.000000
vn 0.000000 -1.000000 0.000000
vn 0.000000 -1.000000 0.000000
vn 0.000000 -1.000000 0.000000
vn -0.868774 0.000000 -0.495209
vn -0.707107 0.000000 -0.707106
vn -0.809337 0.000000 -0.587344
vn -0.809337 0.000000 -0.587344
vn -0.707107 0.000000 -0.707106
vn -0.589105 0.000000 -0.808057
vn -0.592310 0.000000 -0.805710
vn -0.589105 0.000000 -0.808057
vn -0.707107 0.000000 -0.707106
vn 0.143869 0.000000 0.989597
vn -0.156435 0.000000 0.987688
vn 0.000304 -0.000000 1.000000
vn -0.337644 0.000000 0.941274
vn -0.310557 0.000000 0.950555
vn -0.156435 0.000000 0.987688
vn -0.310557 0.000000 0.950555
vn 0.000304 -0.000000 1.000000
vn -0.156435 0.000000 0.987688
vn 0.000000 -1.000000 0.000000
vn 0.000000 -1.000000 0.000000
vn 0.000000 -1.000000 0.000000
vn 0.000000 -1.000000 0.000000
vn 0.000000 -1.000000 0.000000
vn 0.000000 -1.000000 0.000000
vn -0.809337 0.000000 -0.587344
vn -0.951057 0.000000 -0.309017
vn -0.868774 0.000000 -0.495209
vn -0.868774 0.000000 -0.495209
vn -0.951057 0.000000 -0.309017
vn -0.951057 0.000000 -0.309017
vn 0.000000 1.000000 0.000000
vn 0.000000 1.000000 0.000002
vn 0.000000 1.000000 0.000001
vn -0.592310 0.000000 0.805710
vn -0.589104 0.000000 0.808057
vn -0.337644 0.000000 0.941274
vn -0.337644 0.000000 0.941274
vn -0.589104 0.000000 0.808057
vn -0.310557 0.000000 0.950555
vn 0.000000 -1.000000 0.000000
vn 0.000000 -1.000000 0.000000
vn 0.000000 -1.000000 0.000000
vn 0.000000 -1.000000 0.000000
vn 0.000000 -1.000000 0.000000
vn 0.000000 -1.000000 0.000000
vn -0.951057 0.000000 -0.309017
vn -1.000000 0.000000 -0.000000
vn -0.951057 0.000000 -0.309017
vn -0.951057 0.000000 -0.309017
vn -1.000000 0.000000 -0.000000
vn -1.000000 0.000000 0.000000
vn 0.000000 1.000000 0.000002
vn 0.000000 1.000000 0.000001
vn 0.000000 1.000000 0.000001
vn 0.000000 1.000000 0.000001
vn 0.000000 1.000000 0.000001
vn 0.000000 1.000000 0.000001
vn -0.868774 0.000000 0.495209
vn -0.809337 0.000000 0.587344
vn -0.707107 0.000000 0.707107
vn -0.809337 0.000000 0.587344
vn -0.589104 0.000000 0.808057
vn -0.707107 0.000000 0.707107
vn -0.707107 0.000000 0.707107
vn -0.589104 0.000000 0.808057
vn -0.592310 0.000000 0.805710
vn 0.000000 -1.000000 0.000000
vn 0.000000 -1.000000 0.000000
vn 0.000000 -1.000000 0.000000
vn 0.000000 -1.000000 0.000000
vn 0.000000 -1.000000 0.000000
vn 0.000000 -1.000000 0.000000
vn -1.000000 0.000000 -0.000000
vn -0.951057 0.000000 0.309017
vn -1.000000 0.000000 0.000000
vn -1.000000 0.000000 0.000000
vn -0.951057 0.000000 0.309017
vn -0.951057 0.000000 0.309017
vn 0.000000 1.000000 0.000001
vn 0.000000 1.000000 0.000000
vn 0.000000 1.000000 0.000001
vn 0.000000 1.000000 0.000001
vn 0.000000 1.000000 0.000000
vn 0.000000 1.000000 0.000000
vn 0.000000 1.000000 0.000001
vn 0.000000 1.000000 0.000002
vn 0.000000 1.000000 0.000000
vn -0.951057 0.000000 0.309017
vn -0.809337 0.000000 0.587344
vn -0.951057 0.000000 0.309017
vn -0.951057 0.000000 0.309017
vn -0.809337 0.000000 0.587344
vn -0.868774 0.000000 0.495209
vn 0.000000 -1.000000 0.000000
vn 0.000000 -1.000000 0.000000
vn 0.000000 -1.000000 0.000000
vn 0.000000 -1.000000 0.000000
vn 0.000000 -1.000000 0.000000
vn 0.000000 -1.000000 0.000000
vn 0.000000 1.000000 0.000000
vn 0.000000 1.000000 0.000000
vn 0.000000 1.000000 -0.000001
vn 0.000000 1.000000 -0.000001
vn 0.000000 1.000000 0.000000
vn 0.000000 1.000000 -0.000001
vn 0.000000 1.000000 -0.000001
vn 0.000000 1.000000 -0.000001
vn 0.000000 1.000000 0.000001
vn 0.000000 1.000000 0.000001
vn 0.000000 1.000000 -0.000001
vn 0.000000 1.000000 0.000002
vn 0.000000 -1.000000 0.000000
vn 0.000000 -1.000000 0.000000
vn 0.000000 -1.000000 0.000000
s off
usemtl cuthead:initialShadingGroup
f 2/1/1 3/2/2 1/3/3
f 1/3/4 3/2/5 4/4/6
f 5/5/7 6/6/8 19/7/9
f 6/6/10 7/8/11 19/7/12
f 7/8/13 8/9/14 19/7/15
f 1/3/16 4/4/17 18/10/18
f 18/10/19 4/4/20 17/11/21
f 17/11/22 4/4/23 16/12/24
f 8/9/25 9/13/26 19/7/27
f 19/7/28 9/13/29 4/4/30
f 9/13/31 10/14/32 4/4/33
f 10/14/34 11/15/35 4/4/36
f 11/15/37 12/16/38 4/4/39
f 12/16/40 13/17/41 4/4/42
f 13/17/43 14/18/44 4/4/45
f 14/18/46 15/19/47 4/4/48
f 15/19/49 16/12/50 4/4/51
f 18/20/52 21/21/53 1/22/54
f 1/22/55 21/21/56 2/23/57
f 21/21/58 22/24/59 2/23/60
f 22/24/61 23/25/62 2/23/63
f 6/26/64 5/27/65 33/28/66
f 5/27/67 20/29/68 33/28/69
f 33/28/70 20/29/71 32/30/72
f 32/30/73 20/29/74 31/31/75
f 23/25/76 24/32/77 2/23/78
f 2/23/79 24/32/80 20/29/81
f 24/32/82 25/33/83 20/29/84
f 25/33/85 26/34/86 20/29/87
f 26/34/88 27/35/89 20/29/90
f 27/35/91 28/36/92 20/29/93
f 28/36/94 29/37/95 20/29/96
f 29/37/97 30/38/98 20/29/99
f 20/29/100 30/38/101 31/31/102
f 2/1/103 20/39/104 3/2/105
f 3/2/106 20/39/107 34/40/108
f 4/4/109 3/2/110 19/41/111
f 19/41/112 3/2/113 34/42/114
f 19/41/115 34/42/116 5/27/117
f 5/27/118 34/42/119 20/29/120
f 35/43/121 36/44/122 38/45/123
f 38/45/124 36/44/125 37/46/126
f 39/47/127 35/48/128 40/49/129
f 40/49/130 35/48/131 38/50/132
f 36/51/133 35/52/134 41/53/135
f 37/46/136 36/44/137 30/54/138
f 36/44/139 42/55/140 30/54/141
f 30/54/142 42/55/143 31/56/144
f 28/57/145 38/58/146 29/59/147
f 29/59/148 38/58/149 37/60/150
f 43/61/151 39/47/152 44/62/153
f 44/62/154 39/47/155 40/49/156
f 35/52/157 39/63/158 41/53/159
f 27/64/160 40/65/161 28/57/162
f 28/57/163 40/65/164 38/58/165
f 42/66/166 36/51/167 41/53/168
f 29/59/169 37/60/170 30/67/171
f 31/56/172 42/55/173 32/68/174
f 32/68/175 42/55/176 45/69/177
f 46/70/178 43/61/179 47/71/180
f 47/71/181 43/61/182 44/62/183
f 39/63/184 43/72/185 41/53/186
f 44/73/187 40/65/188 26/74/189
f 26/74/190 40/65/191 27/64/192
f 45/75/193 42/66/194 41/53/195
f 32/68/196 45/69/197 33/76/198
f 33/76/199 45/69/200 48/77/201
f 47/71/202 24/78/203 46/70/204
f 46/70/205 24/78/206 49/79/207
f 23/80/208 49/79/209 24/78/210
f 43/72/211 46/81/212 41/53/213
f 47/82/214 44/73/215 25/83/216
f 25/83/217 44/73/218 26/74/219
f 48/84/220 45/75/221 41/53/222
f 7/85/223 6/86/224 50/87/225
f 33/76/226 48/77/227 6/86/228
f 48/77/229 50/87/230 6/86/231
f 51/88/232 49/79/233 22/89/234
f 22/89/235 49/79/236 23/80/237
f 46/81/238 49/90/239 41/53/240
f 24/91/241 47/82/242 25/83/243
f 50/92/244 48/84/245 41/53/246
f 50/87/247 52/93/248 7/85/249
f 7/85/250 52/93/251 8/94/252
f 53/95/253 51/88/254 21/96/255
f 21/96/256 51/88/257 22/89/258
f 49/90/259 51/97/260 41/53/261
f 52/98/262 50/92/263 41/53/264
f 55/99/265 9/100/266 54/101/267
f 54/101/268 9/100/269 52/93/270
f 8/94/271 52/93/272 9/100/273
f 21/96/274 18/102/275 53/95/276
f 17/103/277 56/104/278 18/102/279
f 56/104/280 53/95/281 18/102/282
f 51/97/283 53/105/284 41/53/285
f 54/106/286 52/98/287 41/53/288
f 54/101/289 57/107/290 55/99/291
f 55/99/292 57/107/293 58/108/294
f 9/109/295 55/110/296 10/111/297
f 16/112/298 59/113/299 17/103/300
f 17/103/301 59/113/302 56/104/303
f 53/105/304 56/114/305 41/53/306
f 57/115/307 54/106/308 41/53/309
f 57/107/310 60/116/311 58/108/312
f 58/108/313 60/116/314 61/117/315
f 55/110/316 58/118/317 10/111/318
f 10/111/319 58/118/320 11/119/321
f 62/120/322 63/121/323 15/122/324
f 63/121/325 59/113/326 15/122/327
f 15/122/328 59/113/329 16/112/330
f 56/114/331 59/123/332 41/53/333
f 60/124/334 57/115/335 41/53/336
f 60/116/337 64/125/338 61/117/339
f 61/117/340 64/125/341 65/126/342
f 58/118/343 61/127/344 11/119/345
f 11/119/346 61/127/347 12/128/348
f 14/129/349 62/130/350 15/131/351
f 64/125/352 63/121/353 65/126/354
f 65/126/355 63/121/356 62/120/357
f 59/123/358 63/132/359 41/53/360
f 64/133/361 60/124/362 41/53/363
f 12/128/364 61/127/365 13/134/366
f 13/134/367 61/127/368 65/135/369
f 13/134/370 65/135/371 14/129/372
f 14/129/373 65/135/374 62/130/375
f 63/132/376 64/133/377 41/53/378
