# Blender v2.78 (sub 0) OBJ File: ''
# www.blender.org
mtllib mycube.obh.mtl
o Cube
v 4.057069 1.887156 0.264992
v 4.403645 1.338372 2.156743
v 2.444683 1.041655 2.429556
v 2.098107 1.590440 0.537805
v 3.851270 3.787365 0.853934
v 4.197845 3.238581 2.745685
v 2.238883 2.941864 3.018497
v 1.892308 3.490649 1.126747
vn 0.1029 -0.9501 -0.2945
vn -0.1029 0.9501 0.2945
vn 0.9795 0.1484 -0.1364
vn 0.1733 -0.2744 0.9459
vn -0.9795 -0.1484 0.1364
vn -0.1733 0.2744 -0.9459
usemtl Material
s off
f 1//1 2//1 3//1 4//1
f 5//2 8//2 7//2 6//2
f 1//3 5//3 6//3 2//3
f 2//4 6//4 7//4 3//4
f 3//5 7//5 8//5 4//5
f 5//6 1//6 4//6 8//6
