# This file uses centimeters as units for non-parametric coordinates.

mtllib longwall.mtl
v -24.962210 0.000000 0.500000
v -19.962212 0.000000 0.500000
v -24.962210 4.999996 0.500000
v -24.962214 5.000000 0.500000
v -24.962214 0.000004 0.500000
v -24.962214 0.000000 0.500000
v -24.962210 0.000000 0.499999
v -19.962212 0.000000 -0.500000
v -19.962212 5.000000 0.500000
v -24.962210 5.000000 0.500000
v -29.962210 5.000000 0.500000
v -29.962210 0.000000 0.500000
v -24.962210 0.000000 -0.500000
v -14.962212 0.000000 -0.500000
v -14.962212 0.000000 0.500000
v -24.962210 5.000000 -0.499999
v -24.962214 5.000000 -0.500000
v -24.962214 5.000000 0.499999
v -29.962210 5.000000 -0.500000
v -34.962212 5.000000 0.500000
v -24.962214 0.000000 -0.499999
v -24.962214 0.000000 -0.500000
v -24.962210 0.000004 -0.500000
v -19.962212 5.000000 -0.500000
v -14.962212 5.000000 -0.500000
v -14.962212 5.000000 0.500000
v -24.962210 5.000000 -0.500000
v -34.962212 5.000000 -0.500000
v -34.962212 0.000000 0.500000
v -29.962210 0.000000 -0.500000
v -9.962212 5.000000 -0.500000
v -9.962212 0.000000 -0.500000
v -9.962212 0.000000 0.500000
v -24.962214 4.999996 -0.500000
v -34.962212 0.000000 -0.500000
v -34.962212 5.000000 -0.500000
v -34.962212 5.000000 0.500000
v -9.962212 5.000000 0.500000
v -34.962212 0.000000 -0.500000
v -34.962212 0.000000 0.500000
v -4.962212 5.000000 0.500000
v -4.962212 5.000000 -0.500000
v -4.962212 0.000000 -0.500000
v -4.962212 0.000000 0.500000
v -39.962212 0.000000 -0.500000
v -39.962212 5.000000 -0.500000
v -39.962212 5.000000 0.500000
v -39.962212 0.000000 0.500000
v 0.000000 0.037788 0.500000
v 0.000000 0.000000 0.500000
v 0.000000 5.000000 0.492442
v 0.000000 5.000000 0.500000
v 0.000000 4.962212 -0.500000
v 0.000000 5.000000 -0.500000
v 0.000000 0.000000 -0.492442
v 0.000000 0.000000 -0.500000
v -44.962212 0.000000 0.500000
v -44.962212 0.000000 -0.500000
v -44.962212 5.000000 -0.500000
v -44.962212 5.000000 0.500000
v -49.962212 5.000000 0.500000
v -49.962212 0.000000 0.500000
v -49.962212 0.000000 -0.500000
v -49.962212 5.000000 -0.500000
v 0.037788 0.000000 0.500000
v 0.037788 4.962212 0.500000
v 0.037788 5.000000 0.500000
v 0.037788 5.000000 -0.492442
v 0.037788 5.000000 -0.500000
v 0.037788 0.037788 -0.500000
v 0.037788 0.000000 -0.500000
v 0.037788 0.000000 0.492442
v 25.000000 0.000000 0.500000
v 30.000000 0.000000 0.500000
v 25.000000 5.000000 0.500000
v 20.000000 5.000000 0.500000
v 30.000000 0.000000 -0.500000
v 30.000000 5.000000 0.500000
v 20.000000 5.000000 -0.500000
v 20.000000 0.000000 0.500000
v 25.000000 0.000000 -0.500000
v 35.000000 0.000000 -0.500000
v 25.000000 5.000000 -0.500000
v 35.000000 0.000000 0.500000
v 15.000000 5.000000 -0.500000
v 15.000000 5.000000 0.500000
v 30.000000 5.000000 -0.500000
v 35.000000 5.000000 -0.500000
v 35.000000 5.000000 0.500000
v 15.000000 0.000000 -0.500000
v 20.000000 0.000000 -0.500000
v 15.000000 0.000000 0.500000
v 40.000000 5.000000 -0.500000
v 40.000000 0.000000 -0.500000
v 40.000000 0.000000 0.500000
v 10.000000 0.000000 -0.500000
v 10.000000 5.000000 -0.500000
v 10.000000 5.000000 0.500000
v 40.000000 5.000000 0.500000
v 10.000000 0.000000 0.500000
v 45.000000 5.000000 0.500000
v 45.000000 5.000000 -0.500000
v 45.000000 0.000000 -0.500000
v 45.000000 0.000000 0.500000
v 5.000000 0.000000 0.500000
v 5.000000 0.000000 -0.500000
v 5.000000 5.000000 -0.500000
v 5.000000 5.000000 0.500000
v 50.000000 0.000000 0.500000
v 50.000000 5.000000 0.500000
v 50.000000 5.000000 -0.500000
v 50.000000 0.000000 -0.500000
vt 0.375000 0.000000
vt 0.625000 0.000000
vt 0.375000 0.250000
vt 0.375000 0.250000
vt 0.375000 0.000000
vt 0.375000 0.000000
vt 0.375000 1.000000
vt 0.625000 0.750000
vt 0.625000 1.000000
vt 0.375000 1.000000
vt 0.625000 0.250000
vt 0.375000 0.250000
vt 0.625000 0.250000
vt 0.375000 0.250000
vt 0.625000 0.000000
vt 0.375000 0.000000
vt 0.625000 0.000000
vt 0.375000 1.000000
vt 0.376488 0.749040
vt 0.375691 0.750587
vt 0.625000 0.750000
vt 0.375000 1.000000
vt 0.375000 0.000000
vt 0.625000 0.000000
vt 0.375000 0.250000
vt 0.375540 0.499817
vt 0.375540 0.499818
vt 0.375000 0.250000
vt 0.625000 0.250000
vt 0.375000 0.500000
vt 0.375000 0.250000
vt 0.625000 0.000000
vt 0.625000 0.250000
vt 0.625000 1.000000
vt 0.375000 1.000000
vt 0.625000 0.750000
vt 0.376488 0.749040
vt 0.376488 0.749040
vt 0.376488 0.749040
vt 0.623459 0.500203
vt 0.625000 0.500000
vt 0.625000 1.000000
vt 0.625000 0.250000
vt 0.375540 0.499818
vt 0.625000 0.500000
vt 0.375000 0.500000
vt 0.624782 0.499871
vt 0.375000 0.000000
vt 0.375004 0.750289
vt 0.625000 0.750000
vt 0.375000 0.500000
vt 0.375000 0.500000
vt 0.625000 0.500000
vt 0.375000 0.750000
vt 0.625000 0.750000
vt 0.375000 1.000000
vt 0.375000 0.000000
vt 0.625000 0.000000
vt 0.375000 0.250000
vt 0.375540 0.499818
vt 0.625000 0.500000
vt 0.375000 0.750000
vt 0.375000 0.500000
vt 0.375000 0.250000
vt 0.375000 1.000000
vt 0.625000 0.750000
vt 0.625000 1.000000
vt 0.625000 0.250000
vt 0.625000 1.000000
vt 0.375000 0.750000
vt 0.375000 0.000000
vt 0.375000 0.250000
vt 0.625000 0.250000
vt 0.375000 0.500000
vt 0.625000 0.500000
vt 0.375000 0.750000
vt 0.625000 0.750000
vt 0.375000 1.000000
vt 0.375000 0.000000
vt 0.625000 0.000000
vt 0.375000 1.000000
vt 0.625000 0.750000
vt 0.375000 0.750000
vt 0.625000 0.500000
vt 0.375000 0.500000
vt 0.625000 0.250000
vt 0.375000 0.250000
vt 0.625000 0.000000
vt 0.625000 1.000000
vt 0.625000 1.000000
vt 0.375000 1.000000
vt 0.375000 0.000000
vt 0.623111 0.001889
vt 0.375000 0.250000
vt 0.375000 0.000000
vt 0.623111 0.000000
vt 0.623111 0.251889
vt 0.375000 0.500000
vt 0.623111 0.250000
vt 0.623111 0.501889
vt 0.375000 0.750000
vt 0.623111 0.500000
vt 0.623111 0.751889
vt 0.375000 1.000000
vt 0.623111 0.750000
vt 0.375000 1.000000
vt 0.625000 0.750000
vt 0.625000 1.000000
vt 0.375000 0.750000
vt 0.625000 0.500000
vt 0.375000 0.500000
vt 0.625000 0.250000
vt 0.375000 0.250000
vt 0.625000 0.000000
vt 0.623111 1.000000
vt 0.375000 0.000000
vt 0.375000 0.250000
vt 0.625000 0.000000
vt 0.625000 0.250000
vt 0.375000 1.000000
vt 0.625000 0.750000
vt 0.625000 1.000000
vt 0.375000 0.750000
vt 0.625000 0.500000
vt 0.375000 0.500000
vt 0.375000 0.000000
vt 0.125000 0.250000
vt 0.125000 0.000000
vt 0.625000 0.000000
vt 0.625000 0.248111
vt 0.625000 0.250000
vt 0.625000 0.498111
vt 0.625000 0.500000
vt 0.625000 0.748111
vt 0.625000 0.750000
vt 0.625000 0.998111
vt 0.625000 1.000000
vt 0.375000 0.000000
vt 0.625000 0.000000
vt 0.375000 0.250000
vt 0.375000 0.250000
vt 0.625000 0.000000
vt 0.625000 0.250000
vt 0.375000 1.000000
vt 0.625000 0.750000
vt 0.625000 1.000000
vt 0.625000 0.250000
vt 0.375000 0.500000
vt 0.375000 0.000000
vt 0.375000 0.750000
vt 0.375000 0.750000
vt 0.625000 0.750000
vt 0.375000 1.000000
vt 0.375000 0.500000
vt 0.375000 0.000000
vt 0.625000 0.000000
vt 0.375000 0.250000
vt 0.375000 0.500000
vt 0.625000 0.250000
vt 0.625000 0.500000
vt 0.625000 0.500000
vt 0.375000 0.250000
vt 0.625000 0.000000
vt 0.375000 1.000000
vt 0.625000 0.750000
vt 0.625000 1.000000
vt 0.625000 0.500000
vt 0.625000 0.500000
vt 0.625000 1.000000
vt 0.625000 0.250000
vt 0.375000 0.750000
vt 0.375000 0.750000
vt 0.375000 0.000000
vt 0.375000 0.500000
vt 0.375000 0.500000
vt 0.625000 0.500000
vt 0.375000 0.750000
vt 0.625000 0.750000
vt 0.375000 1.000000
vt 0.375000 0.000000
vt 0.625000 0.000000
vt 0.375000 0.250000
vt 0.375000 0.750000
vt 0.625000 0.500000
vt 0.625000 0.750000
vt 0.625000 0.750000
vt 0.375000 0.500000
vt 0.625000 0.250000
vt 0.375000 0.250000
vt 0.625000 0.000000
vt 0.375000 1.000000
vt 0.625000 1.000000
vt 0.625000 0.250000
vt 0.625000 1.000000
vt 0.375000 1.000000
vt 0.375000 0.000000
vt 0.375000 0.250000
vt 0.625000 0.250000
vt 0.375000 0.500000
vt 0.625000 0.500000
vt 0.375000 0.750000
vt 0.625000 0.750000
vt 0.375000 1.000000
vt 0.375000 0.000000
vt 0.625000 0.000000
vt 0.375000 1.000000
vt 0.625000 0.750000
vt 0.625000 1.000000
vt 0.625000 1.000000
vt 0.375000 0.750000
vt 0.625000 0.500000
vt 0.375000 0.500000
vt 0.625000 0.250000
vt 0.375000 0.250000
vt 0.625000 0.000000
vt 0.625000 1.000000
vt 0.375000 0.000000
vt 0.375000 0.000000
vt 0.625000 0.000000
vt 0.375000 0.250000
vt 0.625000 0.250000
vt 0.375000 0.500000
vt 0.625000 0.500000
vt 0.375000 0.750000
vt 0.625000 0.750000
vt 0.375000 1.000000
vt 0.376889 0.248111
vt 0.625000 0.000000
vt 0.625000 0.250000
vt 0.376889 0.250000
vt 0.376889 0.998111
vt 0.625000 0.750000
vt 0.625000 1.000000
vt 0.376889 1.000000
vt 0.376889 0.748111
vt 0.625000 0.500000
vt 0.376889 0.750000
vt 0.376889 0.498111
vt 0.376889 0.500000
vt 0.625000 1.000000
vt 0.376889 0.000000
vt 0.875000 0.000000
vt 0.875000 0.250000
vn 0.000000 0.000000 1.000000
vn 0.000000 0.000000 1.000000
vn 0.000000 0.000000 1.000000
vn 0.000000 0.000000 1.000000
vn 0.000000 0.000000 1.000000
vn 0.000000 0.000000 1.000000
vn 0.000000 -1.000000 0.000000
vn 0.000000 -1.000000 0.000000
vn 0.000000 -1.000000 0.000000
vn 0.000000 -1.000000 0.000000
vn 0.000000 0.000000 1.000000
vn 0.000000 0.000000 1.000000
vn 0.000000 0.000000 0.000000
vn 0.000000 0.000000 0.000000
vn 0.000000 0.000000 0.000000
vn 0.000000 0.000000 1.000000
vn 0.000000 0.000000 1.000000
vn 0.000000 -0.000000 0.000000
vn 0.000000 -0.000000 0.000000
vn 0.000000 -0.000000 0.000000
vn 0.000000 -1.000000 0.000000
vn 0.000000 -1.000000 0.000000
vn 0.000000 0.000000 1.000000
vn 0.000000 1.000000 0.000000
vn 0.000000 1.000000 0.000000
vn 0.000000 1.000000 0.000000
vn 0.000000 1.000000 0.000000
vn 0.000000 1.000000 0.000000
vn 0.000000 1.000000 0.000000
vn 0.000000 1.000000 0.000000
vn 0.000000 1.000000 0.000000
vn 0.000000 0.000000 1.000000
vn 0.000000 -1.000000 0.000000
vn 0.000000 -1.000000 0.000000
vn 0.000000 -1.000000 0.000000
vn 0.000000 -1.000000 0.000000
vn -0.000000 0.000000 -1.000000
vn -0.000000 0.000000 -1.000000
vn -0.000000 0.000000 -1.000000
vn -0.000000 0.000000 -1.000000
vn 0.000000 0.000000 -1.000000
vn 0.000000 0.000000 -1.000000
vn 0.000000 -1.000000 0.000000
vn 0.000000 0.000000 1.000000
vn 0.000000 1.000000 0.000000
vn 0.000000 1.000000 0.000000
vn 0.000000 0.000000 0.000000
vn 0.000000 0.000000 0.000000
vn 0.000000 0.000000 0.000000
vn 0.000000 1.000000 0.000000
vn 0.000000 1.000000 0.000000
vn 0.000000 0.000000 1.000000
vn 0.000000 -1.000000 0.000000
vn 0.000000 0.000000 -0.000000
vn 0.000000 0.000000 -0.000000
vn 0.000000 0.000000 -0.000000
vn 0.000000 0.000000 -1.000000
vn 0.000000 0.000000 -1.000000
vn 0.000000 -1.000000 0.000000
vn 0.000000 1.000000 0.000000
vn 0.000000 0.000000 1.000000
vn 0.000000 0.000000 -1.000000
vn 0.000000 0.000000 -1.000000
vn 0.000000 0.000000 -1.000000
vn 0.000000 0.000000 -1.000000
vn 0.000000 0.000000 -1.000000
vn 0.000000 0.000000 -1.000000
vn 0.000000 0.000000 -1.000000
vn 0.000000 0.000000 0.000000
vn 0.000000 0.000000 0.000000
vn 0.000000 -1.000000 0.000000
vn 0.000000 1.000000 0.000000
vn 0.000000 1.000000 0.000000
vn 0.000000 1.000000 0.000000
vn 0.000000 0.000000 -1.000000
vn 0.000000 -1.000000 0.000000
vn 0.000000 0.000000 1.000000
vn 0.000000 0.000000 0.000000
vn 0.000000 0.000000 0.000000
vn 0.000000 0.000000 -1.000000
vn 0.000000 0.000000 -1.000000
vn 0.000000 0.000000 0.000000
vn 0.000000 1.000000 0.000000
vn 0.000000 1.000000 0.000000
vn 0.000000 0.000000 0.000000
vn 0.000000 0.000000 1.000000
vn 0.000000 0.000000 1.000000
vn 0.000000 -1.000000 0.000000
vn 0.000000 1.000000 0.000000
vn 0.000000 0.000000 -1.000000
vn 0.000000 -1.000000 0.000000
vn 0.000000 0.000000 1.000000
vn 0.000000 0.000000 0.000000
vn 0.000000 -1.000000 0.000000
vn 0.000000 -1.000000 0.000000
vn 0.000000 0.000000 -1.000000
vn 0.000000 1.000000 0.000000
vn 0.000000 0.000000 0.000000
vn 0.000000 0.000000 1.000000
vn 0.000000 0.000000 1.000000
vn 0.000000 1.000000 0.000000
vn 0.000000 0.000000 -1.000000
vn 0.000000 -1.000000 0.000000
vn 0.000000 -1.000000 0.000000
vn 0.000000 -1.000000 0.000000
vn 0.000000 0.000000 -1.000000
vn 0.000000 1.000000 0.000000
vn 0.000000 0.000000 1.000000
vn 0.000000 0.000000 1.000000
vn 0.000000 0.000000 1.000000
vn 0.000000 1.000000 0.000000
vn 0.000000 1.000000 0.000000
vn 0.000000 0.000000 -1.000000
vn 0.000000 0.000000 -1.000000
vn 0.000000 -1.000000 0.000000
vn 0.000000 -1.000000 0.000000
vn 0.000000 -1.000000 0.000000
vn 0.000000 0.000000 -1.000000
vn 0.000000 1.000000 0.000000
vn 0.000000 0.000000 1.000000
vn 0.000000 0.000000 1.000000
vn 0.000000 -1.000000 0.000000
vn 0.000000 1.000000 0.000000
vn 0.000000 0.000000 -1.000000
vn 0.000000 0.000000 1.000000
vn 0.000000 -1.000000 0.000000
vn 0.000000 0.000000 -1.000000
vn 0.000000 1.000000 0.000000
vn 0.000000 0.000000 1.000000
vn 0.000000 -1.000000 0.000000
vn 0.000000 0.000000 -1.000000
vn 0.000000 1.000000 0.000000
vn 0.000000 1.000000 0.000000
vn 0.000000 0.000000 1.000000
vn 0.000000 -1.000000 0.000000
vn 0.000000 0.000000 -1.000000
vn -1.000000 0.000000 0.000000
vn -1.000000 0.000000 0.000000
vn -1.000000 0.000000 0.000000
vn -1.000000 0.000000 0.000000
vn 0.000000 0.000000 1.000000
vn 0.000000 0.000000 1.000000
vn 0.000000 0.000000 1.000000
vn 0.000000 1.000000 0.000000
vn 0.000000 1.000000 0.000000
vn 0.000000 1.000000 0.000000
vn 0.000000 0.000000 -1.000000
vn 0.000000 0.000000 -1.000000
vn 0.000000 0.000000 -1.000000
vn 0.000000 -1.000000 0.000000
vn 0.000000 -1.000000 0.000000
vn 0.000000 -1.000000 0.000000
vn 0.000000 0.000000 1.000000
vn 0.000000 0.000000 1.000000
vn 0.000000 0.000000 1.000000
vn 0.000000 0.000000 1.000000
vn 0.000000 -1.000000 0.000000
vn 0.000000 -1.000000 0.000000
vn 0.000000 -1.000000 0.000000
vn 0.000000 0.000000 1.000000
vn 0.000000 1.000000 0.000000
vn 0.000000 1.000000 0.000000
vn 0.000000 1.000000 0.000000
vn 0.000000 0.000000 1.000000
vn 0.000000 -1.000000 0.000000
vn 0.000000 -1.000000 0.000000
vn 0.000000 1.000000 0.000000
vn 0.000000 1.000000 0.000000
vn 0.000000 0.000000 1.000000
vn 0.000000 1.000000 0.000000
vn 0.000000 0.000000 1.000000
vn 0.000000 -1.000000 0.000000
vn 0.000000 0.000000 -1.000000
vn 0.000000 0.000000 -1.000000
vn 0.000000 0.000000 -1.000000
vn 0.000000 0.000000 -1.000000
vn 0.000000 0.000000 -1.000000
vn 0.000000 -1.000000 0.000000
vn 0.000000 1.000000 0.000000
vn 0.000000 0.000000 1.000000
vn 0.000000 0.000000 -1.000000
vn 0.000000 0.000000 -1.000000
vn 0.000000 0.000000 -1.000000
vn 0.000000 1.000000 0.000000
vn 0.000000 0.000000 -1.000000
vn 0.000000 0.000000 -1.000000
vn 0.000000 0.000000 1.000000
vn 0.000000 -1.000000 0.000000
vn 0.000000 0.000000 -1.000000
vn 0.000000 -1.000000 0.000000
vn 0.000000 1.000000 0.000000
vn 0.000000 0.000000 1.000000
vn 0.000000 0.000000 -1.000000
vn 0.000000 1.000000 0.000000
vn 0.000000 0.000000 1.000000
vn 0.000000 -1.000000 0.000000
vn 0.000000 1.000000 0.000000
vn 0.000000 1.000000 0.000000
vn 0.000000 1.000000 0.000000
vn 0.000000 0.000000 -1.000000
vn 0.000000 -1.000000 0.000000
vn 0.000000 0.000000 1.000000
vn 0.000000 -1.000000 0.000000
vn 0.000000 -1.000000 0.000000
vn 0.000000 -1.000000 0.000000
vn 0.000000 0.000000 -1.000000
vn 0.000000 1.000000 0.000000
vn 0.000000 0.000000 1.000000
vn 0.000000 1.000000 0.000000
vn 0.000000 0.000000 -1.000000
vn 0.000000 -1.000000 0.000000
vn 0.000000 0.000000 1.000000
vn 0.000000 -1.000000 0.000000
vn 0.000000 0.000000 -1.000000
vn 0.000000 1.000000 0.000000
vn 0.000000 0.000000 1.000000
vn 0.000000 0.000000 1.000000
vn 0.000000 1.000000 0.000000
vn 0.000000 0.000000 -1.000000
vn 0.000000 -1.000000 0.000000
vn 0.000000 0.000000 1.000000
vn 0.000000 -1.000000 0.000000
vn 0.000000 0.000000 -1.000000
vn 0.000000 1.000000 0.000000
vn 0.000000 0.000000 1.000000
vn 0.000000 1.000000 0.000000
vn 0.000000 0.000000 -1.000000
vn 0.000000 -1.000000 0.000000
vn 0.000000 -1.000000 0.000000
vn 0.000000 0.000000 1.000000
vn 0.000000 1.000000 0.000000
vn 0.000000 0.000000 -1.000000
vn 1.000000 0.000000 0.000000
vn 1.000000 0.000000 0.000000
vn 1.000000 0.000000 0.000000
vn 1.000000 0.000000 0.000000
s 1
usemtl initialShadingGroup
f 1/1/1 2/2/2 3/3/3
f 3/3/3 4/4/4 5/5/5 6/6/6 1/1/1
s 2
f 7/7/7 8/8/8 2/9/9 1/10/10
s 1
f 3/3/3 2/2/2 9/11/11 10/12/12
s off
f 10/12/13 4/4/14 3/3/15
s 1
f 4/13/4 11/14/16 5/15/5
f 5/15/5 11/14/16 12/16/17 6/17/6
s off
f 1/10/18 6/18/19 7/7/20
s 2
f 13/19/21 8/8/8 7/7/7
f 8/20/8 14/21/22 2/22/9
s 1
f 2/23/2 15/24/23 9/25/11
s 3
f 10/12/24 9/11/25 16/26/26
f 16/26/26 17/27/27 18/28/28 4/4/29 10/12/24
f 18/29/28 19/30/30 11/14/31 4/13/29
s 1
f 20/31/32 12/32/17 11/33/16
s 2
f 6/34/33 12/35/34 21/36/35
f 7/7/7 6/18/33 21/37/35 22/38/36 13/19/21
s 5
f 23/39/37 24/40/38 8/8/39 13/19/40
f 8/20/39 25/41/41 14/21/42
s 2
f 2/22/9 14/21/22 15/42/43
s 1
f 9/25/11 15/24/23 26/43/44
s 3
f 16/26/26 9/11/25 24/40/45 27/44/46
s off
f 27/44/47 17/27/48 16/26/49
s 3
f 17/45/27 19/30/30 18/29/28
f 28/46/50 11/33/31 19/47/30
f 20/31/51 11/33/31 28/46/50
s 1
f 29/48/52 12/32/17 20/31/32
s 2
f 21/36/35 12/35/34 30/49/53 22/50/36
s off
f 13/19/54 22/38/55 23/39/56
s 5
f 27/44/57 24/40/38 23/39/37
f 24/51/38 25/41/41 8/20/39
f 25/52/41 31/53/58 14/54/42
s 2
f 14/54/22 32/55/59 15/56/43
s 3
f 9/25/25 26/43/60 24/51/45
s 1
f 15/57/23 33/58/61 26/59/44
s 5
f 23/39/37 22/38/62 34/60/63 17/27/64 27/44/57
f 34/61/63 30/49/65 19/30/66 17/45/64
f 28/46/67 19/47/66 35/62/68
s 3
f 28/46/50 36/63/69 20/31/51
s 1
f 20/31/32 37/64/70 29/48/52
s 2
f 29/65/71 30/66/53 12/67/34
s 5
f 22/50/62 30/49/65 34/61/63
s 3
f 24/51/45 26/43/60 25/41/72
f 25/52/72 38/68/73 31/53/74
s 5
f 14/54/42 31/53/58 32/55/75
s 2
f 15/56/43 32/55/59 33/69/76
s 1
f 26/59/44 33/58/61 38/68/77
s 5
f 35/62/68 19/47/66 30/66/65
f 35/62/68 39/70/78 28/46/67
s 6
f 28/46/79 39/70/80 36/63/81
s 7
f 20/31/82 36/63/83 37/64/84
s 8
f 29/48/85 37/64/86 40/71/87
s 2
f 35/62/88 30/66/53 29/65/71
s 3
f 26/59/60 38/68/73 25/52/72
f 38/72/73 41/73/89 31/74/74
s 5
f 31/74/58 42/75/90 32/76/75
s 2
f 32/76/59 43/77/91 33/78/76
s 1
f 33/79/61 44/80/92 38/72/77
s 9
f 35/62/93 40/81/94 39/70/95
s 6
f 39/82/80 45/83/96 36/84/81
s 7
f 36/84/83 46/85/97 37/86/84
s 2
f 29/65/71 40/81/98 35/62/88
s 8
f 37/86/86 47/87/99 40/88/87
s 1
f 38/72/77 44/80/92 41/73/100
s 3
f 31/74/74 41/73/89 42/75/101
s 5
f 32/76/75 42/75/90 43/77/102
s 2
f 33/78/76 43/77/91 44/89/103
s 9
f 40/90/94 48/91/104 39/82/95
f 39/82/95 48/91/104 45/83/105
s 6
f 36/84/81 45/83/96 46/85/106
s 7
f 37/86/84 46/85/97 47/87/107
s 8
f 40/88/87 47/87/99 48/92/108
s 1
f 49/93/109 41/94/100 44/95/92 50/96/110
s 3
f 51/97/111 42/98/101 41/94/89 52/99/112
s 5
f 53/100/113 43/101/102 42/98/90 54/102/114
s 2
f 55/103/115 44/104/103 43/101/91 56/105/116
s 9
f 57/106/117 45/107/105 48/108/104
s 6
f 58/109/118 46/110/106 45/107/96
s 7
f 59/111/119 47/112/107 46/110/97
s 8
f 60/113/120 48/114/108 47/112/99
s 1
f 52/99/121 41/94/100 49/93/109
s 2
f 50/115/122 44/104/103 55/103/115
s 3
f 54/102/123 42/98/101 51/97/111
s 5
f 56/105/124 43/101/102 53/100/113
s 8
f 57/116/125 48/114/108 60/113/120
s 9
f 58/109/126 45/107/105 57/106/117
s 6
f 59/111/127 46/110/106 58/109/118
s 7
f 60/113/128 47/112/107 59/111/119
s 8
f 61/117/129 57/118/125 60/119/120
s 9
f 62/120/130 58/121/126 57/122/117
s 6
f 63/123/131 59/124/127 58/121/118
s 7
f 64/125/132 60/119/128 59/124/119
f 61/117/133 60/119/128 64/125/132
s 8
f 62/126/134 57/118/125 61/117/129
s 9
f 63/123/135 58/121/126 62/120/130
s 6
f 64/125/136 59/124/127 63/123/131
s 10
f 64/127/137 62/126/138 61/117/139
f 63/128/140 62/126/138 64/127/137
s 1
f 50/96/110 65/129/141 49/93/109
f 49/93/109 65/129/141 66/130/142 67/131/143 52/99/121
s 3
f 52/99/112 67/131/144 51/97/111
f 51/97/111 67/131/144 68/132/145 69/133/146 54/102/123
s 5
f 54/102/114 69/133/147 53/100/113
f 53/100/113 69/133/147 70/134/148 71/135/149 56/105/124
s 2
f 56/105/116 71/135/150 55/103/115
f 55/103/115 71/135/150 72/136/151 65/137/152 50/115/122
s 1
f 73/138/153 74/139/154 75/140/155
f 76/141/156 73/142/153 75/143/155
s 2
f 73/144/157 77/145/158 74/146/159
s 1
f 75/140/155 74/139/154 78/147/160
s 3
f 76/141/161 75/143/162 79/148/163
s 1
f 80/149/164 73/142/153 76/141/156
s 2
f 81/150/165 77/145/158 73/144/157
f 77/151/158 82/152/166 74/153/159
s 3
f 75/140/162 78/147/167 83/154/168
s 1
f 74/155/154 84/156/169 78/157/160
s 3
f 85/158/170 76/159/161 79/160/163
f 79/148/163 75/143/162 83/161/168
s 1
f 86/162/171 80/163/164 76/159/156
s 2
f 80/164/172 81/165/165 73/166/157
s 5
f 81/150/173 87/167/174 77/145/175
f 77/151/175 88/168/176 82/152/177
s 2
f 74/153/159 82/152/166 84/169/178
s 3
f 83/154/168 78/147/167 87/167/179
s 1
f 78/157/160 84/156/169 89/170/180
s 5
f 85/158/181 79/160/182 90/171/183
s 3
f 86/162/184 76/159/161 85/158/170
s 5
f 79/148/182 83/161/185 91/172/186
s 1
f 92/173/187 80/163/164 86/162/171
s 2
f 91/172/188 81/165/165 80/164/172
s 5
f 83/154/185 87/167/174 81/150/173
f 87/174/174 88/168/176 77/151/175
f 88/175/176 93/176/189 82/177/177
s 2
f 82/177/166 94/178/190 84/179/178
s 3
f 78/157/167 89/170/191 87/174/179
s 1
f 84/180/169 95/181/192 89/182/180
s 5
f 96/183/193 85/184/181 90/185/183
f 90/171/183 79/160/182 91/186/186
s 3
f 97/187/194 86/188/184 85/184/170
s 5
f 91/172/186 83/161/185 81/165/173
s 1
f 98/189/195 92/190/187 86/188/171
s 2
f 92/191/196 91/186/188 80/192/172
s 3
f 87/174/179 89/170/191 88/168/197
f 88/175/197 99/193/198 93/176/199
s 5
f 82/177/177 93/176/189 94/178/200
s 2
f 84/179/178 94/178/190 95/194/201
s 1
f 89/182/180 95/181/192 99/193/202
s 2
f 96/183/203 90/185/204 100/195/205
s 5
f 97/187/206 85/184/181 96/183/193
s 2
f 90/171/204 91/186/188 92/191/196
s 3
f 98/189/207 86/188/184 97/187/194
s 1
f 100/196/208 92/190/187 98/189/195
s 3
f 89/182/191 99/193/198 88/175/197
f 99/197/198 101/198/209 93/199/199
s 5
f 93/199/189 102/200/210 94/201/200
s 2
f 94/201/190 103/202/211 95/203/201
s 1
f 95/204/192 104/205/212 99/197/202
s 2
f 105/206/213 96/207/203 100/208/205
f 100/195/205 90/185/204 92/209/196
s 5
f 106/210/214 97/211/206 96/207/193
s 3
f 107/212/215 98/213/207 97/211/194
s 1
f 108/214/216 100/215/208 98/213/195
f 99/197/202 104/205/212 101/198/217
s 3
f 93/199/199 101/198/209 102/200/218
s 5
f 94/201/200 102/200/210 103/202/219
s 2
f 95/203/201 103/202/211 104/216/220
s 1
f 105/217/221 100/215/208 108/214/216
s 2
f 106/210/222 96/207/203 105/206/213
s 5
f 107/212/223 97/211/206 106/210/214
s 3
f 108/214/224 98/213/207 107/212/215
s 1
f 104/218/212 109/219/225 101/220/217
s 3
f 101/220/209 110/221/226 102/222/218
s 5
f 102/222/210 111/223/227 103/224/219
s 2
f 103/224/211 112/225/228 104/226/220
s 1
f 66/227/142 105/228/221 108/229/216 67/230/143
s 2
f 72/231/151 106/232/222 105/233/213 65/234/152
s 5
f 70/235/148 107/236/223 106/232/214 71/237/149
s 3
f 68/238/145 108/229/224 107/236/215 69/239/146
s 2
f 104/226/220 112/225/228 109/240/229
s 1
f 101/220/217 109/219/225 110/221/230
s 3
f 102/222/218 110/221/226 111/223/231
s 5
f 103/224/219 111/223/227 112/225/232
s 1
f 65/241/141 105/228/221 66/227/142
s 3
f 67/230/144 108/229/224 68/238/145
s 2
f 71/237/150 106/232/222 72/231/151
s 5
f 69/239/147 107/236/223 70/235/148
s 19
f 109/219/233 112/242/234 110/221/235
f 110/221/235 112/242/234 111/243/236
